# xmcd CD database file
#
# Track frame offsets:
#	150
#	28825
#	50800
#	63600
#	85925
#	104750
#	129850
#	144350
#	147875
#	162925
#	184850
#	190500
#	208205
#	225107
#
# Disc length: 3331 seconds
#
# Revision: 0
# Processed by: cddbd v1.5PL3 Copyright (c) Steve Scherf et al.
# Submitted via: CDex 1.50beta10
#
DISCID=c60d010e
DTITLE=安東ウメ子 - ウポポ　サンケ
DYEAR=2003
DGENRE=Ethnic
TTITLE0=イウタ　ウポポ
TTITLE1=サランペ
TTITLE2=チョーラックン
TTITLE3=クー　リムセ
TTITLE4=エリ　リムセ
TTITLE5=ムックリ　ハゥエヘ
TTITLE6=ヘレカン　ホー
TTITLE7=レラ　スエ
TTITLE8=サルキウシナイ　コタン
TTITLE9=スチョチョイ
TTITLE10=チュプ　カムイ　ホー
TTITLE11=ウタリ　オブンパレワ
TTITLE12=エムシ　リムセ
TTITLE13=アルオー
EXTD=YEAR: 2003
EXTT0=
EXTT1=
EXTT2=
EXTT3=
EXTT4=
EXTT5=
EXTT6=
EXTT7=
EXTT8=
EXTT9=
EXTT10=
EXTT11=
EXTT12=
EXTT13=
PLAYORDER=
